/* XPM */
static char *rcp11064864427719[] = {
/* columns rows colors chars-per-pixel */
"32 32 8 1 ",
"  c #754C60",
". c #90625D",
"X c #D99A9A",
"o c #DCB98A",
"O c #E8B5AC",
"+ c #F3E5C2",
"@ c #EAE9F1",
"# c white",
/* pixels */
"################################",
"################################",
"################################",
"################################",
"################################",
"################################",
"################################",
"##################..##..########",
"#################.+.##.+.#######",
"##############..#.+....+.##..###",
"#############.++..ooooo++..++.##",
"#########.....++++ooooo+++.++.##",
"#######..ooo+.OO+ooo o++ +.OO.##",
"######.ooooo++...ooo +++ ++..###",
"###..#.oooo++++++++++++++++.####",
"###.o..oo++++++++++++OOOOOO.####",
"####.o.++++++oo++.++OOXOOXO.####",
"#####..+++++oooo++.+OOOOOOO.####",
"######.++++++oo++++........#####",
"######.oooo+++++++ooo.##########",
"######.oooooooooooooo.##########",
"#####@@.oo....oo...oo.@@########",
"####@@@.oo.@@.oo.@.oo.@@@#######",
"####@@@@..@@@@..@@@..@@@@#######",
"#####@@@@@@@@@@@@@@@@@@@########",
"################################",
"################################",
"################################",
"################################",
"################################",
"################################",
"################################"
};
