/* XPM */
static char *rcp11070798853295[] = {
/* columns rows colors chars-per-pixel */
"32 32 3 1 ",
"  c #AA7959",
". c #C49A6C",
"X c white",
/* pixels */
"XXXXXXXXXXXXXXXXXXXXXXXXXXXXXXXX",
"XXXXXXXXXXXXXXXXXXXXXXXXXXXXXXXX",
"XXXXXXXXXXXXXXXXXXXXXXXXXXXXXXXX",
"XXXXXXXXXXXXXXXXXXXXXXXXXXXXXXXX",
"XXXXXXXXXXXXXXXXXX...XXXXXXXXXXX",
"XXXXXXXXXXXXXXXXXX...XXXXXXXXXXX",
"XXXXXXXXX...XXXXXX.. XXXXXXXXXXX",
"XXXXXXXXX...XXXXX...XXXXXXXXXXXX",
"XXXXXXXXX ...XXXX...XXXXXXXXXXXX",
"XXXXXXXXXX...XXXX.. XXXXXXXXXXXX",
"XXXXXXXXXX ...XX...XXXXXXXXXXXXX",
"XXXXXXXXXXX...XX...XXXXX...XXXXX",
"XXX...XXXXX ...X   XXX.....XXXXX",
"XXX......XXX...XXXXX.....  XXXXX",
"XXX   .....X   XXX.....  XXXXXXX",
"XXXXXX  ...XXXXXXX...  XXXXXXXXX",
"XXXXXXXX   XXXXXXX   XXXXXXXXXXX",
"XXXXXXXXXXXXXXXXXXXXXXXXXXXXXXXX",
"XXXXXXXXXX...XXXXXXX...XXXXXXXXX",
"XXXXXXXX.....XXXXXXX.....XXXXXXX",
"XXXXXX.....  XXX...X  ......XXXX",
"XXXX.....  XXXXX...XXX   ...XXXX",
"XXXX...  XXX...X ...XXXXX   XXXX",
"XXXX   XXXXX...XX...XXXXXXXXXXXX",
"XXXXXXXXXXX... XX ...XXXXXXXXXXX",
"XXXXXXXXXXX...XXXX...XXXXXXXXXXX",
"XXXXXXXXXXX.. XXXX ...XXXXXXXXXX",
"XXXXXXXXXX...XXXXXX...XXXXXXXXXX",
"XXXXXXXXXX...XXXXXX   XXXXXXXXXX",
"XXXXXXXXXX   XXXXXXXXXXXXXXXXXXX",
"XXXXXXXXXXXXXXXXXXXXXXXXXXXXXXXX",
"XXXXXXXXXXXXXXXXXXXXXXXXXXXXXXXX"
};
