/* XPM */
static char *_f08c8d16bda43e0a63f8bd7c0ea06c1oqnqdRfTlXMyB04C[] = {
/* columns rows colors chars-per-pixel */
"64 32 8 1 ",
"  c None",
". c #754C60",
"X c #90625D",
"o c #C49A6C",
"O c #D4C169",
"+ c #C58086",
"@ c #E8CFA6",
"# c #F3F2C0",
/* pixels */
"                                                                ",
"                                                                ",
"                                                                ",
"      XXX             XXX                                       ",
"     X+++X           X+++X                                      ",
"    X#####X         X#####X                                     ",
"   X##.##.#X       X#..##..X                                    ",
"   X####OO#X       X####OO#X                                    ",
"  X########X      X########X                                    ",
" X#########X     X#########X                                    ",
" X@###o###@X     X@###o###@X                                    ",
"  Xooo@@@@X       Xooo@@@@X                                     ",
"   XOOXOOX         XOOXOOX                                      ",
"    XX XX           XX XX                                       ",
"                                                                ",
"                                                                ",
"                                                                ",
"                                                                ",
"                      XXX                             XXX       ",
"      XXX            X+++X            XXX            X+++X      ",
"     X+++X          X#####X          X+++X          X#####X     ",
"    X#####X        X##.##.#X        X#####X        X##.##.#X    ",
"   X###.##.X       X####OO#X       X#.##.##X       X####OO#X    ",
"   X#####OOX      X########X       X###OO##X      X########X    ",
"  X########X     X#########X      X########X     X#########X    ",
" X#########X     X@##o####@X     X#########X     X@##o####@X    ",
" X@###o###@X     Xooo@@@@@X      X@#o#####@X     Xooo@@@@@X     ",
" Xoooo@@@@@X      XXX@@@@X       Xoo@@@@@@@X      XXXXOOXX      ",
" XOOXXXXXOOX         XOOX        XOOXXXXXOOX        XOXX        ",
"  XX     XX           XX          XX     XX          XX         ",
"                                                                ",
"                                                                "
};
