/* XPM */
static char *rcp1107196444777[] = {
/* columns rows colors chars-per-pixel */
"32 32 121 2 ",
"   c #49488F",
".  c #4C4D92",
"X  c #4F5295",
"o  c #525396",
"O  c #545699",
"+  c #56589A",
"@  c #5B639E",
"#  c #6D679B",
"$  c #6E689C",
"%  c #706A9E",
"&  c #5E67A1",
"*  c #5D69A3",
"=  c #6267A4",
"-  c #626BA6",
";  c #6F6DA2",
":  c #746FA0",
">  c #6573AA",
",  c #6A77AF",
"<  c #757DA4",
"1  c #7675AB",
"2  c #787CAB",
"3  c #6E7CB4",
"4  c #7B7DB0",
"5  c #7780A5",
"6  c #7981A7",
"7  c #7D86AC",
"8  c #7F88AF",
"9  c #6F81B7",
"0  c #7181B7",
"q  c #7F85B5",
"w  c #8683B4",
"e  c #868CB6",
"r  c #8C8DB5",
"t  c #8489B8",
"y  c #8491B5",
"u  c #8D95BB",
"i  c #8D99BD",
"p  c #9694B9",
"a  c #929BBF",
"s  c #9C99BC",
"d  c #A29EBD",
"f  c #9BA2BF",
"g  c #A4A0BE",
"h  c #B1B7BE",
"j  c #B3B9BF",
"k  c #919CC1",
"l  c #93A4C7",
"z  c #9DA5C4",
"x  c #9EAAC5",
"c  c #92A4C8",
"v  c #9BA7CA",
"b  c #97A8CD",
"n  c #9BAACD",
"m  c #A5A6C1",
"M  c #AAABC4",
"N  c #A0ADCF",
"B  c #B0AECA",
"V  c #ABB0C4",
"C  c #ABB3CA",
"Z  c #B2B6C6",
"A  c #B9B7C0",
"S  c #B4BAC1",
"D  c #B8BEC4",
"F  c #B6BDCC",
"G  c #AEBBD5",
"H  c #A8B7D8",
"J  c #ABBCDE",
"K  c #B5BCD3",
"L  c #ACBDE0",
"P  c #C1BEC7",
"I  c #BAC1C5",
"U  c #BCC6CC",
"Y  c #B4C0D5",
"T  c #BEC0D2",
"R  c #B5C3DC",
"E  c #C4C2CB",
"W  c #C3CCCE",
"Q  c #CCD3CF",
"!  c #C5C9D0",
"~  c #C9CED5",
"^  c #C7CDDA",
"/  c #CACED9",
"(  c #CBD0D7",
")  c #C7D0DC",
"_  c #CDD4DC",
"`  c #D8DDD1",
"'  c #D3D4DB",
"]  c #D1D9DE",
"[  c #DADBDE",
"{  c #DEE1D3",
"}  c #E2E5D4",
"|  c #E8EBD7",
" . c #E3E6D8",
".. c #E7E9D9",
"X. c #EAECDB",
"o. c #EDF0DC",
"O. c #F0F3DD",
"+. c #C0CDE0",
"@. c #C9D5E4",
"#. c #D9D7E0",
"$. c #D5DBE2",
"%. c #DADCE2",
"&. c #DEE2E4",
"*. c #DEE5EA",
"=. c #E3E5E5",
"-. c #EDEFE2",
";. c #E3E9EC",
":. c #EEF0E4",
">. c #EDF3EF",
",. c #F3F4E7",
"<. c #F7F8E7",
"1. c #FAFBE6",
"2. c #F4F5E8",
"3. c #FCFCEC",
"4. c #E5ECF2",
"5. c #ECEEF1",
"6. c #F2F3F3",
"7. c #F7F8F5",
"8. c #FDFDF3",
"9. c #F7F9F9",
"0. c #FFFFFE",
/* pixels */
"0.0.0.0.0.0.0.0.0.0.0.0.0.0.0.0.0.0.0.0.0.0.0.0.0.0.0.0.0.0.0.0.",
"0.0.0.0.0.0.0.0.0.0.0.0.0.0.0.0.0.0.0.0.0.0.0.0.0.0.0.0.0.0.0.0.",
"0.0.0.0.0.0.0.0.0.0.8.0.0.8.8.8.8.8.8.0.0.8.0.0.0.0.0.0.0.0.0.0.",
"0.0.0.0.0.0.0.0.0.7.[ %.%.' ' ' ' ' ' %.#.[ 7.0.0.0.0.0.0.0.0.0.",
"0.0.0.0.0.0.0.0.8.=.M r t r r r r r r w w g =.8.0.0.0.0.0.0.0.0.",
"0.0.0.0.0.0.0.6.[ K t @ @ & & & & @ @ X . 1 B ' 5.0.0.0.0.0.0.0.",
"0.0.0.0.0.0.8.%.m q 0 0 9 0 0 0 0 3 > * * = 1 s [ 8.0.0.0.0.0.0.",
"0.0.0.0.0.0.8.%.m 2 3 3 3 3 3 3 3 , - & * = ; d %.8.0.0.0.0.0.0.",
"0.0.0.0.0.0.0.6.[ V 4 o X + + + + O o   . 1 M [ 6.0.0.0.0.0.0.0.",
"0.0.0.0.0.0.0.9.>./ s % $ : : : : : : # # p / >.9.0.0.0.0.0.0.0.",
"0.0.0.0.0.0.8.;.@.K T E E E E E E E E P A Z G @.5.8.0.0.0.0.0.0.",
"0.0.0.0.0.0.3.;.J n ] 3.3.3.3.3.3.3.3.1.o.W l J 4.3.0.0.0.0.0.0.",
"0.0.0.0.0.0.3.4.J n $.3.3.3.3.3.3.3.3.3.O.W c L 4.3.0.0.0.0.0.0.",
"0.0.0.0.0.0.3.*.J b _ 3.3.,.,.,.,.<.<.,...U c J ;.3.0.0.0.0.0.0.",
"0.0.0.0.0.0.3.*.J n _ 3.3.,.,.,.,.<.<.,...U c J ;.3.0.0.0.0.0.0.",
"0.0.0.0.0.6.;.@.R Y %.<.3.,.,.,.,.<.<.,. .W C G ) =.6.0.0.0.0.0.",
"0.0.0.0.8.;.+.G ^ =.:.,.<.,.,.,.,.<.<.-. .` Q F x K *.8.0.0.0.0.",
"0.0.0.0.3.4.J n ] 3.3.,.,.,.,.,.,.<.<.-. .} } I y n *.3.0.0.0.0.",
"0.0.0.0.3.4.L n ] 3.3.,.,.,.,.,.,.<.<.-. .} } I y n *.3.0.0.0.0.",
"0.0.0.0.3.&.H v _ <.3.,.,.,.,.,.,.<.<.-. .} } D y l $.3.0.0.0.0.",
"0.0.0.0.3.$.N k ( 3.3.,.,.,.,.,.,.<.<.-. .} } S 7 a ' 3.0.0.0.0.",
"0.0.0.0.3.$.v i ~ 3.3.,.,.,.,.,.,.<.<.:. .} } S 6 u ' 3.0.0.0.0.",
"0.0.0.0.3.$.v i ~ 3.3.,.,.,.,.,.,.<.<.:. .} } S 6 u ' 3.0.0.0.0.",
"0.0.0.0.3.$.n i ~ 3.3.,.<.<.<.<.<.,.,.X.} } } S 6 u ' 3.0.0.0.0.",
"0.0.0.0.3.$.n i ~ 3.3.<.<.<.<.<.<.,.X.{ { } } S 6 u ' 3.0.0.0.0.",
"0.0.0.0.3.*.l e ~ 3.8.3.<.,.,.,.,.:...} } X.| S < u %.3.0.0.0.0.",
"0.0.0.0.3.%.k 8 ! 3.8.,.X...X.X.X...} } } | | S < u $.3.0.0.0.0.",
"0.0.0.0.8.%.V z F ! ~ E D h h j j j j S S j j V f M %.8.0.0.0.0.",
"0.0.0.0.0.6.&.^ z 7 6 7 6 5 5 5 5 6 6 6 6 < < f ^ &.6.0.0.0.0.0.",
"0.0.0.0.0.0.8.=.C 7 6 7 7 7 7 7 7 7 7 7 7 7 7 C =.8.0.0.0.0.0.0.",
"0.0.0.0.0.0.0.7.[ ~ ~ ! ! ! ! ! ! ! ! ! ! / / [ 7.0.0.0.0.0.0.0.",
"0.0.0.0.0.0.0.0.8.0.0.8.3.3.3.3.3.3.3.3.8.0.0.8.0.0.0.0.0.0.0.0."
};
