/* XPM */
static char *rcp1107248787020[] = {
/* columns rows colors chars-per-pixel */
"32 32 100 2 ",
"   c #8E775B",
".  c #A2705F",
"X  c #A77D67",
"o  c #A97965",
"O  c #AC7D69",
"+  c #759F57",
"@  c #7C9B57",
"#  c #769F58",
"$  c #7C9D58",
"%  c #77A057",
"&  c #79A157",
"*  c #7BA258",
"=  c #7FA960",
"-  c #8E8A57",
";  c #8F8A58",
":  c #9D845A",
">  c #928F59",
",  c #9E885A",
"<  c #929059",
"1  c #A7835D",
"2  c #AB825D",
"3  c #A2895D",
"4  c #A9885F",
"5  c #84A35A",
"6  c #8BA65C",
"7  c #84AA5B",
"8  c #8CAD5C",
"9  c #91AD5D",
"0  c #8BB35D",
"q  c #93B45E",
"w  c #96B95F",
"e  c #948366",
"r  c #AC8B60",
"t  c #B58561",
"y  c #B68C62",
"u  c #BE8C66",
"i  c #BE8F6A",
"p  c #B69764",
"a  c #BC9166",
"s  c #B79A65",
"d  c #B99C66",
"f  c #BF9468",
"g  c #80A663",
"h  c #83AA64",
"j  c #8BAE65",
"k  c #8EB267",
"l  c #90B367",
"z  c #9BB763",
"x  c #97BA60",
"c  c #9EBC63",
"v  c #96B669",
"b  c #96B869",
"n  c #99B969",
"m  c #AEAB65",
"M  c #B9A066",
"N  c #B2AD67",
"B  c #BCA368",
"V  c #B6AF68",
"C  c #BCA969",
"Z  c #A1BF63",
"A  c #B6B168",
"S  c #C18F67",
"D  c #C09067",
"F  c #C2956A",
"G  c #C59B6D",
"H  c #CA9C6E",
"J  c #C1A26F",
"K  c #D3A573",
"L  c #9CC263",
"P  c #A4C363",
"I  c #AAC665",
"U  c #ACC967",
"Y  c #ACC768",
"T  c #AECA68",
"R  c #B3CC6A",
"E  c #B8CF6D",
"W  c #B6D06C",
"Q  c #BDD26F",
"!  c #BFD470",
"~  c #C1D470",
"^  c #C3D971",
"/  c #C8D973",
"(  c #BD9C88",
")  c #98B682",
"_  c #99B882",
"`  c #A2BF8C",
"'  c #C09F87",
"]  c #A2C18C",
"[  c #EADDD4",
"{  c #DCE7D6",
"}  c #DFE8D8",
"|  c #EEE2D8",
" . c #E0E8DA",
".. c #E4EDE0",
"X. c #F2EBE2",
"o. c #F7F6F7",
"O. c #F6F8F7",
"+. c #F7F6F8",
"@. c #FBF6F9",
"#. c #FCFCFB",
/* pixels */
"#.#. .` 0 7 + 7 0 8 8 % & 7 & 7 0 8 7 % & 7 & 7 0 8 7 7 7 ] } #.",
"#.{ = L P I Y P I I T R R R Y P I I R R R T P P I I R T Z L g ..",
"#.) L P R ~ R Z T ! Q ^ ~ ~ R P P P T ^ ^ Q Q ~ T P R ~ T P L _ ",
"+.j I T Q Q I 8 z ^ Q ~ Q Q I q $ x P Q Q Q ~ ^ c q P Q ~ E P 7 ",
"O.k P R ~ ~ R 5 m ^ ~ Q Q ~ R 5 : 9 U Q ~ ~ ~ ^ m 8 U ! Q Q I 8 ",
"O.h P R ~ ~ T @ V ^ ~ Q ! ~ T * r 5 I ~ Q Q ~ ^ V 5 I ~ ~ Q I 8 ",
"O.v T Q Q Q P 6 N ^ ~ ~ ~ Q P 8 4 6 P Q Q ! ~ ^ N 5 P Q ~ Q P & ",
"O.v U E ~ ~ I 5 A ^ ~ ~ ~ ~ I 5 r 8 P Q ~ ~ ~ ^ A 6 P Q ~ ~ I % ",
"O.h P R ~ ~ ~ Q ~ ~ ~ ~ ~ ~ ~ Q ~ Q Q ~ ~ ~ ~ ~ ~ Q Q ~ ~ ~ T % ",
"O.h P R ~ Q ~ R Q ~ ~ ~ ~ ~ ~ R R R ~ ~ ~ Q Q ~ Q R ~ ~ ~ Q P 7 ",
"O.v T Q ~ Q T c T ~ ~ Q Q ~ T P c P Y ~ ~ ! Q ~ T c Y ~ ~ Q I 8 ",
"O.n T Q ~ Q I 8 z ^ ~ ! Q Q P 7 $ x P Q ~ ~ ~ ^ c q P Q ~ ~ R 7 ",
"O.j W Q Q ~ R 5 m ^ ~ ~ Q ~ T $ : 9 U Q ~ ~ ~ Q m 8 U ! Q ~ R % ",
"O.g T ~ Q ^ T @ V ^ ~ ~ Q ~ T 5 r 5 I Q Q ~ ~ ^ V 5 I ~ ~ ~ T % ",
"O.j I Q ~ Q P 6 N ^ ~ ~ ~ Q P 9 4 6 P ~ Q Q ~ ^ V 5 P Q ~ Q I 8 ",
"O.k U Q ~ ~ I $ N Q ~ ~ ~ ~ I 5 3 6 P Q ~ ~ ~ ^ N 5 P Q ~ Q I 8 ",
"O.h P R ~ ~ R 0 c ^ ~ ! Q ~ R q & 7 P Q ~ ~ ! ^ c * P Q ~ ~ T % ",
"O.h P R ~ ~ ! T R ~ ~ Q Q ~ ! T P P E ~ Q ~ Q Q R P E ~ ~ Q P 7 ",
"O.v T Q ~ ~ Q ~ Q ~ ~ ~ ~ ~ ~ ~ Q ! ~ ~ Q Q ~ ~ ! ! ~ ~ ~ Q I 8 ",
"O.n T Q ~ ~ Q Q ~ ~ ~ ~ ! Q Q Q ~ Q Q ~ ~ ~ ~ ~ ~ Q Q ~ ~ ~ R 7 ",
"O.j W Q Q ~ ~ ~ ~ ~ ~ ~ Q Q ~ Q ~ ! Q Q Q ~ ~ ~ ~ ! Q ~ ~ ~ R % ",
"O.g Y ~ ~ ~ ~ ~ ~ ~ ~ ~ ~ ~ ~ ~ ~ ~ ~ ! Q ~ ~ ~ ~ ~ ~ ~ ~ ~ T % ",
"O.j P Q ~ ~ ~ ~ ~ ~ ~ ~ ~ ~ ~ ~ ~ ~ ~ ~ ~ ~ ~ ~ ~ ~ ~ ~ ~ Q I 8 ",
"O.l T ~ ~ ~ Q Q Q ~ ~ ~ ~ ~ ~ Q E E Q ! ~ ~ ~ ~ Q E Q ~ ~ ! I 8 ",
"O.b R Q ^ Q I w Z / ~ Q Q ~ Q I 8 * x E ~ ~ ~ / c 7 I ~ ~ E P * ",
"O.g x I R I P P I E T I P T T P P P I R I Y R R I P W W I I w # ",
"@.e 5 0 L 0 9 0 L 0 8 8 w L 8 w L 0 8 8 w L 8 w L L q 8 0 0 *   ",
"+.O y ; > , 2 : > ; 1 2 , < 2 3 < ; 1 2 , < 2 , < > 2 1 - ; 4 . ",
"o.X H S u D G D u u D F u u D F u u D F u u D F u u F F u u F o ",
"#.' K G G f G G G G f G G G f G G G f G G G f G G f G G G f K ( ",
"#.| G H f a G F f G a G u a a G G G a G u a a G G f y f F F G X.",
"#.#.[ J C s t y t d M y s t y C y d M y s t y C a a p s B i [ #."
};
