/* XPM */
static char *_6e5962e366d40cbdcc1704922706b34nrEo3MU1RXx73KDr[] = {
/* columns rows colors chars-per-pixel */
"112 80 10 1 ",
"  c None",
". c #545959",
"X c #754C60",
"o c #6B7470",
"O c #90625D",
"+ c #AA7959",
"@ c #B68962",
"# c #C49A6C",
"$ c #818B83",
"% c #9DA89A",
/* pixels */
"                                                           X#@@O#@@#X           #@@#........@@#O    ........    ",
"                                                           X@@@O@@@@X           @@@.$$$$$$$$.@@O   .$$$$$$$$.   ",
"                                                           X@++O+++@X           @@@.$oooooo$.@@O   .$oooooo$.   ",
"                                                           X+OOOOOO+X           +++.%oooooo$.++O   .%oooooo$.   ",
"                                                           XO##O###OX           OOO.$%$$$$$$.OOO   .$%$$$$$$.   ",
"                                                           X#@O@@@@#X           @@@@.oooooo.@@@@    .oooooo.    ",
"                                                           X@@O@@@@@X           @@@@.$$$$$$.@@@@    .$$$$$$.    ",
"                                                           X@@O@@@@@X           @@@@o$$$$$$o@@@@    o$$$$$$o    ",
"                                                           X++O@@++@X           @@@@@oooooo@@@@@     oooooo     ",
"             XX  XX   XX   XXX   XX              XX   XX   XOOO++OO+X XX   XXX  ################                ",
"            X##XX##X X##X X###X X##X            X##X X##X X###OOO##OXX##X X###X OOOOOOOOOOOOOOOO                ",
"           X#@@+#@@#X#@@#X#@@@#X#@@#X           #@@#X#@@#X#@@@#O#@@#O#@@#X#@@@#X+++++O++++O+++++                ",
"           X@@@+@@@@O@@@@O@@@@@O@@@@X           @@@@O@@@@O@@@@@O@@@@O@@@@O@@@@@O+@@@@O@@@@+@@@@@                ",
"           X@++O@++@O@+++O@@++@O@++@X           @++@O@+++O@@+++O@@@@O@+++O@@++@OO@@@@O@@@@+@@@@@                ",
"           X+OOO+OO+O+OOOO++OO+O+OO+X           +OO+O+OOOO++OOOO@++@O+OOOO++OO+OO@@@@O@@@@@+@@@@                ",
"           XO##OO##OOO###OOO##O+O##OX           O##OOO###OOO###O+OO+OO###OOO##OOO#@@#O#@@@#O#@@#                ",
"           X#@@O#@@#O#@@@#O#@@#+#@@#X           OO##OOO###OO+OO+O##OOOO###OOO##O                                ",
"           X@@@O@@@@O@@@@@O@@@@+@@@@X           O+OO++OOOO+O@++@OOO+++OOOO+O+OO+                                ",
"           X@++O+++@O@@@@@O@@@@O+++@X           O@++@@O+++@O@@@@O++@@@O+++@O@++@                                ",
"           X+OOOOOO+O@++@@O++@@OOOO+X           O@@@@@O@@@@O@@@@O@@@@@O@@@@O@@@@                                ",
"           XO##O###OO+OO++OOO++O###OX           X#@@@#X#@@#O#@@#O#@@@#X#@@#X#@@#                                ",
"           X#@O@@@@#OO##OOO##OO#@@@#X            X###X X##XXO##OOO###X X##X X##X                                ",
"           X@@O@@@@@+#@@#O#@@#O@@@@@X             XXX   XX X+OO++OOXX   XX   XX                                 ",
"           X@@O@@++@+@@@@O@@@@O@@@@@X                      X@++@@O++X                                           ",
"           X@+O@+OO++@+++O@@++O@@++@X                      X@@@@@O@@X                                           ",
"           X+OO+O##OO+OOOO++OOO++OO+X                      X@@@@@O@@X                                           ",
"           XO##O#@@#OO###OOO##OOO##OX                      X#@@@@O@#X                                           ",
"           X#@@+@@@@O#@@@#O#@@#+#@@#X                      XO###O##OX                                           ",
"           X@@@+@@@@O@@@@@O@@@@+@@@@X                      X+OOOOOO+X                                           ",
"           X@++O@++@O@+++@O@++@+@++@X                      X@+++O++@X                                           ",
"           X+OOO+OO+O+OOO+O+OO+++OO+X                      X@@@@O@@@X                                           ",
"           XO##OO##OOO###OOO##OOO##OX                      X#@@#O@@#X                                           ",
"           X#@@O#@@#O#@@@#+#@@#O#@@#X           #@@#O#@@@#O#@@#+#@@#O#@@@#O#@@#+#@@#O#@@@#O#@@#+#@@#O#@@@#O#@@#+",
"           X@@@O@@@@+@@@@@+@@@@O@@@@X           @@@@+@@@@@O@@@@+@@@@+@@@@@+@@@@+@@@@O@@@@@O@@@@+@@@@O@@@@@O@@@@+",
"           X@@@O@@@@@+@@@@O@@@@O@@@@X           +++@+++@@@O@@@@O+++@+@@@@++@@@@O+++@O@@@@@+@@@@++++@O@@@@+O@@@@O",
"           X+++O+++++O++++O++++O++++X           OOO++++++@O++@@OOOO++@@@+++++@@OOOO+O@++@@+++@@+OOO+O@++++O++@@O",
"           XOOOOOOOOOOOOOOOOOOOOOOOOX           ###O++OO++OOO++O###O++O++++++++O###OO++++++++++O@@#OO+OO++OOO++O",
"          X+@@@@@@@@@@@@@@@@@@@@@@@@+X          @@@#OO@@O+O@#OO#@@@#+O##+++##+O#@@@#OO##+++##O+#@@@#OO@@O+O@@O+#",
"          X@@@@@@@@@@@@@@@@@@@@@@@@@@X          @@@@O@++@O@@@#O@@@@@O#@@#+#@@#O@@@@@+#@@#+#@@#O@@@@@+@@@@O@++@O@",
"          X@@@@@@@@@@@@@@@@@@@@@@@@@@X          @+++O++++O+@@@O@@++@O@@@@+@@@@+@@++@+@@@@+@@@@O@@++@+@@++O++++O@",
"          X#@@@@@@@@@@@@@@@@@@@@@@@@#X          +OO+O++++O+++@O@+OO+O@++++@@+++@+O+++@++++@@++O@+OO+O++++O++++O@",
"          X+########################+X          O##OO+OOOO++OOO+O##O++++O+++OO++O##++++++O++OOO+O##OO+OOOO++OOO+",
"           XOOOOOOOOOOOOOOOOOOOOOOOOX           #@@#OO@##OOO##+O#@@#++###O+O##+O#@@#++###O+O##OO#@@#OO###O+O##OO",
"           X+++++++++O++++O+++++O+++X           @@@@O@@@@#O#@@#+@@@@+#@@@#O#@@#+@@@@O#@@@#O#@@#+@@@@O#@@@#O#@@#+",
"           X@@@@+@@@@O@@@@+@@@@@O@@@X           @@@@O++@@@O@@@@+@@@@+@@@@@O@@@@+@@@@O@@@@@O@@@@+@@@@O@@@@@O@@@@+",
"           X@@@@O@@@@O@@@@+@@@@@O@@@X           @++@O++++@O@++@+@++@O@+++@O@++@+@++@O@+++@O@++@+@++@O@+++@O@++@+",
"           X@@@@O@@@@O@@@@@+@@@@O@@@X           +OO+O+OOO+O+OO+O+OO+O+OOO+O+OO+O+OO+O+OOO+O+OO+++OO+O+OOO+O+OO++",
"           X#@@#O#@@#O#@@@#O#@@#O@@#X           O##OOO###OOO##OOO##OOO###OOO##OOO##OOO###OOO##OOO##OOO###OOO##OO",
"           XO##OOO##OOO###OOO##OO##OX           #@@#O#@@@#+#@@#O#@@#O#@@@#+#@@#O#@@#O#@@@#+#@@#O#@@#O#@@@#+#@@#O",
"           X+OO+O+OO+O+OOO+O+OO+OOO+X           @@@@+@@@@@+@@@@O@@@@+@@@@@+@@@@O@@@@+@@@@@+@@@@O@@@@+@@@@@+@@@@O",
"           X@++@+@++@O@+++@O@++@O++@X           @@@@@+@@@@O@@@@O@@@++@@@@@O@@@@O@@@@@+@@@@O@@@@O@@@@++@@@@O@@@@+",
"           X@@@@+@@@@O@@@@@O@@@@O@@@X           +++++O++++O++++O++++++++++O++++O+++++O++++O++++O++++++++++O+++++",
"           X#@@#+#@@#O#@@@#O@@@@O@@#X           OOOOOOOOOOOOOOOOOOOOOOOOOOOOOOOOOOOOOOOOOOOOOOOOOOOOOOOOOOOOOOOO",
"           XO##OO+##OOO###OO#@@#O##OX           @@@@@@@@@@@@@@@@@@@@@@@@@@@@@@@@@@@@@@@@@@@@@@@@@@@@@@@@@@@@@@@@",
"           X+OO++OOO++OOOO+OO##O+OO+X           @@@@@@@@@@@@@@@@@@@@@@@@@@@@@@@@@@@@@@@@@@@@@@@@@@@@@@@@@@@@@@@@",
"           X@++@@O++@@++++@O+OO+@O+@X           @@@@@@@@@@@@@@@@@@@@@@@@@@@@@@@@@@@@@@@@@@@@@@@@@@@@@@@@@@@@@@@@",
"           X@@@@@O@@@@+@@@@O@++@@O@@X           @@@@@@@@@@@@@@@@@@@@@@@@@@@@@@@@@@@@@@@@@@@@@@@@@@@@@@@@@@@@@@@@",
"           X@@@@@O#@@#O#@@#O@@@@@O@@X           ################################################################",
"           X#@@@#OO##OOO##OO#@@@@O@#X           OOOOOOOOOOOOOOOOOOOOOOOOOOOOOOOOOOOOOOOOOOOOOOOOOOOOOOOOOOOOOOOO",
"           XO###O++OOO++OO++O###O##OX           +++++O+++++++++++++++O++++O++++++++++++++++O+++++++++O++++O+++++",
"           X+OOOO@@++O@@++@++OOOOOO+X           +@@@@O@@@@+++@@@+@@@@O@@@@+@@@@@+@@@@+@@@@@O@@@@+@@@@O@@@@+@@@@@",
"           X@+++O@@@@O@@@@@+@+++O++@X           O@@@@O@@@@++@@@@O@@@@O@@@@+@@@@@O@@@@+@@@@@+@@@@O@@@@O@@@@+@@@@@",
"           X@@@@+@@@@O@@@@@+@@@@O@@@X           O@@@@O@@@@@+@@@@O@@@@O@@@@@+@@@@O@@@@O@@@@@+@@@@O@@@@O@@@@@+@@@@",
"           X#@@#+#@@#O#@@@#O#@@#O@@#X           O#@@#O#@@@#O#@@#O#@@#O#@@@#O#@@#O#@@#O#@@@#O#@@#O#@@#O#@@@#O#@@#",
"           XO##OOO##OOO###OOO##OO##OX           OO##OOO###OOO##OOO##OOO###OOO##OOO##OOO###OOO##OOO##OOO###OOO##O",
"           X+OO+O+OO++OOOO+O+OO+OOO+X           O+OO+O+OOO+O+OO+O+OO+O+OOO+O+OO+++OO+O+OOO+O+OO+++OO+O+OOO+O+OO+",
"           X@++@O@++@@O+++@O@++@O++@X           +@++@O@+++@O@++@+@++@O@++++O@++@+@++@O@+++@O@++@+@++@O@+++@O@++@",
"           X@@@@O@@@@@O@@@@O@@@@O@@@X           +@@@@O@@@@@+@@@@+@@@@O@@@++O@@@@+@@@@O@@@@@O@@@@+@@@@O@@@@@O@@@@",
"           X#@@#X#@@@#X#@@#X#@@#O@@#X           +#@@#O#@@@#+@@@@+#@@#O#@@@@O@@@@+#@@#O#@@@#O@@@@+#@@#O#@@@#O@@@@",
"            X##X X###X X##X X##XX##X            O+##O+O###++#@@#O+##OOO##@OO#@@#OO##O+O###++#@@#OO##O+O###OO#@@#",
"             XX   XXX   XX   XX  XX             ++OO+++O++++O##O+OOO++OOOO+OO##O+OOO++O++++++##O+OOO++OOOO+OO##O",
"                                                @+++@@++++@O+OO+@O@+++O++++O+OO+@O++@@++++@+++O+@O++++O++++O+OO+",
"                                                @+@@@@+@@@@O@++@@O@@@+O++++O+++@@O@@@@+@@@@+@++@@O++++O++@@+@++@",
"                                                @O#@@#+#@@#O@@@@@O#@@@O@++@O@@@@@O#@@#+#@@#+@@@@@O@++@O@@@@+@@@@",
"                                                #O+##+++##O+#@@@#OO#@O+O@@OO#@@@#+O##+++##OO#@@@#+O@@O+O@@OO#@@@",
"                                                O++++++++O++O###O++OOO++OO++O###O++++++++++OO###O++OOO++OO+OO#@@",
"                                                O@@+++++@@@++OOOO@@++O@++++++OOO+@@+++@@++@O+OOOO@@++O++++@O+OOO",
"                                                O@@@@++@@@@+@+++O@@@@O@@@+++@++++@@@@+@@@@@O@+++O@@@@O+@@@@O@+++",
"                                                +@@@@+@@@@@+@@@@+@@@@O@@@@@+@@@@+@@@@O@@@@@O@@@@+@@@@O@@@@@O@@@@",
"                                                +#@@#O#@@@#O#@@#+#@@#O#@@@#O#@@#+#@@#O#@@@#O#@@#+#@@#O#@@@#O#@@#"
};
