/* XPM */
static char *rcp11071295638108[] = {
/* columns rows colors chars-per-pixel */
"32 32 159 2 ",
"   c #7F525D",
".  c #83565D",
"X  c #8C5D5B",
"o  c #91635D",
"O  c #95695F",
"+  c #A5755C",
"@  c #AC7E5D",
"#  c #845A62",
"$  c #8B6161",
"%  c #936764",
"&  c #926965",
"*  c #986B61",
"=  c #986E69",
"-  c #9C7061",
";  c #97706D",
":  c #9A726F",
">  c #9F786E",
",  c #8B6672",
"<  c #99797F",
"1  c #A77A65",
"2  c #A97C60",
"3  c #A37768",
"4  c #A77E68",
"5  c #A97D6B",
"6  c #A27363",
"7  c #A97F71",
"8  c #79A457",
"9  c #7CA758",
"0  c #8C9055",
"q  c #909B54",
"w  c #A2915D",
"e  c #81A65B",
"r  c #83AB5B",
"t  c #8AAF5D",
"y  c #90A858",
"u  c #9DA359",
"i  c #8CB25C",
"p  c #85B25C",
"a  c #A5A25E",
"s  c #A1B75D",
"d  c #AD8366",
"f  c #AC816B",
"g  c #B38561",
"h  c #B78861",
"j  c #BA8D64",
"k  c #B98C69",
"l  c #AD9666",
"z  c #BE9267",
"x  c #BE936B",
"c  c #BA9F68",
"v  c #B88A74",
"b  c #B58E7E",
"n  c #B88F7A",
"m  c #BB9774",
"M  c #91AE61",
"N  c #9AAF69",
"B  c #89B160",
"V  c #94B565",
"C  c #98B364",
"Z  c #95B960",
"A  c #9EBD62",
"S  c #97B768",
"D  c #9FB06A",
"F  c #A3AE6D",
"G  c #A1BF64",
"H  c #ACBF64",
"J  c #BAB679",
"K  c #C1946A",
"L  c #C59A6C",
"P  c #C89C6D",
"I  c #C59770",
"U  c #C39C73",
"Y  c #CA9D73",
"T  c #C49C79",
"R  c #CB9E7E",
"E  c #CBA16E",
"W  c #CCA173",
"Q  c #C7AB7B",
"!  c #D5A776",
"~  c #D1A870",
"^  c #D1AB7D",
"/  c #C2B67E",
"(  c #C4B87E",
")  c #9DC164",
"_  c #A2C164",
"`  c #AEC769",
"'  c #AEC968",
"]  c #B0C363",
"[  c #B6CE6A",
"{  c #B8CF6B",
"}  c #B7D16B",
"|  c #BDD56D",
" . c #C1D570",
".. c #9B7F89",
"X. c #9C7A80",
"o. c #9C818E",
"O. c #9D9585",
"+. c #9F8394",
"@. c #A18184",
"#. c #AD8C87",
"$. c #B0928F",
"%. c #B9998E",
"&. c #A28792",
"*. c #A68C94",
"=. c #A88D96",
"-. c #A98E99",
";. c #AC929C",
":. c #B39792",
">. c #BD9E96",
",. c #BB9E99",
"<. c #BBA087",
"1. c #BDA19C",
"2. c #B6A3AD",
"3. c #CC9D80",
"4. c #CEA880",
"5. c #D5A985",
"6. c #D3AF8E",
"7. c #D5B186",
"8. c #D8B487",
"9. c #D6B28E",
"0. c #D7BB89",
"q. c #DCBC8B",
"w. c #CDB19C",
"e. c #D9B695",
"r. c #DBB896",
"t. c #E3B78E",
"y. c #E4BD91",
"u. c #EABD93",
"i. c #CCB8B4",
"p. c #E4C595",
"a. c #EACFA1",
"s. c #E7CBA9",
"d. c #E9CFAE",
"f. c #EDD3A5",
"g. c #F4D5A8",
"h. c #EDD3B0",
"j. c #EFDBB7",
"k. c #F0DCB4",
"l. c #F9D9B1",
"z. c #F3DFBA",
"x. c #F3E0BB",
"c. c #CBBEC9",
"v. c #D3C1C1",
"b. c #D7C9C9",
"n. c #DACBCC",
"m. c #C9D3CB",
"M. c #CCD7D0",
"N. c #DDD2D4",
"B. c #DBD8E6",
"V. c #DBD6E4",
"C. c #E2E1EE",
"Z. c #EEE9ED",
"A. c #F7F2EF",
"S. c #ECECF3",
"D. c #EFEFFA",
"F. c #F5EFF0",
"G. c #F4F0F1",
"H. c #F2F3FB",
"J. c #FFFFFF",
/* pixels */
"J.J.J.J.J.J.J.J.J.J.J.J.N.n.7 5 5 7 n.N.J.J.J.J.J.J.J.J.J.J.J.J.",
"J.J.J.J.J.J.J.J.G.Z.1.>.3.5.0.0.0.0.5.3.>.1.Z.G.J.J.J.J.J.J.J.J.",
"J.J.J.J.J.J.b.v.b n t.y./ J C t t C J / y.t.n b v.b.J.J.J.J.J.J.",
"J.J.J.G.1.>.3.5.q.0.F D i 9 ' _ _ ' 9 i D F 0.q.5.3.>.1.G.J.J.J.",
"J.J.J.,.u.y.( J M e i | G r _ Z Z _ r G | i e M J ( y.u.,.J.J.J.",
"J.J.J.>.Q N 8 Z [ i t [ A r ` _ _ ` r A [ t i [ Z 8 N Q >.J.J.J.",
"J.J.J.F.O.B t _ { i V  .A r _ Z Z _ r A  .V i { _ t B O.F.J.J.J.",
"J.J.J.J.M.S t G [ i t [ ) r H s s H r ) [ t i [ G t S M.J.J.J.J.",
"J.J.J.J.m.S t G } i i | u 0 m U U m 0 u | i i } G t S m.J.J.J.J.",
"J.J.J.J.m.S p ) ] y w c 6.r.k.x.x.k.r.6.c w y ] ) p S m.J.J.J.J.",
"J.J.J.J.m.V q a U T s.d.k.k.p.p.p.p.k.k.d.s.T U a q V m.J.J.J.J.",
"J.J.J.A.<.l 9.e.j.z.f.a.8.5.f 5 5 f 5.7.a.f.z.j.e.9.l <.A.J.J.J.",
"J.J.J.w.l.h.k.k.p.r.T m * o X X X X o * m T y.p.k.k.h.l.w.J.J.J.",
"J.J.J.%.g.f.7.4.f 1 X X X X o o o o X X X X 1 f 4.7.f.g.%.J.J.J.",
"J.J.J.i.R T 1 1 @ @ g g g g g g g g g g g g @ @ 1 1 T R i.J.J.J.",
"J.J.J.J.b.X.x L L L L L L L L L L L L L L L L L L x < b.J.J.J.J.",
"J.J.J.J.J.-.k h h h h h h h h h h h h h h h h h h k =.J.J.J.J.J.",
"J.J.J.J.J.=.Y E x x P P P P E E E E P P P P x x E Y =.J.J.J.J.J.",
"J.J.J.J.J.=.x d # # d j j j f 4 4 f j j j d # # d x =.J.J.J.J.J.",
"J.J.J.J.J.=.K $ . . $ z j O   . .   O j z $ . . $ K =.J.J.J.J.J.",
"J.J.J.J.J.=.W & * * & ~ f . o o o o . f ~ & * * & W =.J.J.J.J.J.",
"J.J.J.J.J.=.k 2 ^ ^ 2 h - . o o o o . - h 2 ^ ^ 2 k =.J.J.J.J.J.",
"J.J.J.J.J.*.I P W W L P 4 . o X X o . 4 P L W W P I *.J.J.J.J.J.",
"J.J.J.J.J.;.Y L k x I W f X + + + + X f W I x k L Y ;.J.J.J.J.J.",
"J.J.J.J.J.F.;., % # o.&.+.> L z z L > +.&.o.# % , ;.F.J.J.J.J.J.",
"J.J.J.J.J.J.J.&.Y ; C.H.J.:.Y z z Y :.J.H.C.; Y &.J.J.J.J.J.J.J.",
"J.J.J.J.J.J.H.&.W : B.S.H.$.P z z P $.H.S.B.: W &.H.J.J.J.J.J.J.",
"J.J.J.J.J.J.H...! = V.S.H.$.P z z P $.H.S.V.= ! ..H.J.J.J.J.J.J.",
"J.J.J.J.J.J.J.2.v @.C.S.D.$.L z z L $.D.S.C.@.v 2.J.J.J.J.J.J.J.",
"J.J.J.J.J.J.J.J.c.Z.J.H.J.$.L z z L $.J.H.J.Z.c.J.J.J.J.J.J.J.J.",
"J.J.J.J.J.J.J.J.J.J.J.J.J.#.Y K K Y #.J.J.J.J.J.J.J.J.J.J.J.J.J.",
"J.J.J.J.J.J.J.J.J.J.J.J.J.N.3 6 6 3 N.J.J.J.J.J.J.J.J.J.J.J.J.J."
};
